<?xml version="1.0" encoding="UTF-8" standalone="no"?>
<!DOCTYPE svg PUBLIC "-//W3C//DTD SVG 1.1//EN"
 "http://www.w3.org/Graphics/SVG/1.1/DTD/svg11.dtd">
<!-- Generated by graphviz version 2.40.1 (20161225.0304)
 -->
<!-- Title: G Pages: 1 -->
<svg width="177pt" height="188pt"
 viewBox="0.00 0.00 177.48 188.00" xmlns="http://www.w3.org/2000/svg" xmlns:xlink="http://www.w3.org/1999/xlink">
<g id="graph0" class="graph" transform="scale(1 1) rotate(0) translate(4 184)">
<title>G</title>
<polygon fill="#ffffff" stroke="transparent" points="-4,4 -4,-184 173.4805,-184 173.4805,4 -4,4"/>
<!-- p -->
<g id="node1" class="node">
<title>p</title>
<polygon fill="none" stroke="#000000" points="169.7214,-180 -.2409,-180 -.2409,-144 169.7214,-144 169.7214,-180"/>
<text text-anchor="middle" x="84.7402" y="-157.8" font-family="Times,serif" font-size="14.00" fill="#000000">(PARSE string synthesizer)</text>
</g>
<!-- READ&#45;EDN -->
<g id="node2" class="node">
<title>READ&#45;EDN</title>
<polygon fill="none" stroke="#000000" points="92.2863,-108 5.1941,-108 5.1941,-72 92.2863,-72 92.2863,-108"/>
<text text-anchor="middle" x="48.7402" y="-85.8" font-family="Times,serif" font-size="14.00" fill="#000000">READ&#45;EDN</text>
</g>
<!-- p&#45;&gt;READ&#45;EDN -->
<g id="edge1" class="edge">
<title>p&#45;&gt;READ&#45;EDN</title>
<path fill="none" stroke="#000000" d="M48.7402,-143.8314C48.7402,-143.8314 48.7402,-118.4133 48.7402,-118.4133"/>
<polygon fill="#000000" stroke="#000000" points="52.2403,-118.4132 48.7402,-108.4133 45.2403,-118.4133 52.2403,-118.4132"/>
</g>
<!-- SYNTHESIZER -->
<g id="node3" class="node">
<title>SYNTHESIZER</title>
<polygon fill="none" stroke="#000000" points="139.8506,-36 29.6298,-36 29.6298,0 139.8506,0 139.8506,-36"/>
<text text-anchor="middle" x="84.7402" y="-13.8" font-family="Times,serif" font-size="14.00" fill="#000000">SYNTHESIZER</text>
</g>
<!-- READ&#45;EDN&#45;&gt;SYNTHESIZER -->
<g id="edge2" class="edge">
<title>READ&#45;EDN&#45;&gt;SYNTHESIZER</title>
<path fill="none" stroke="#000000" d="M61.0989,-71.8314C61.0989,-71.8314 61.0989,-46.4133 61.0989,-46.4133"/>
<polygon fill="#000000" stroke="#000000" points="64.599,-46.4132 61.0989,-36.4133 57.599,-46.4133 64.599,-46.4132"/>
</g>
<!-- SYNTHESIZER&#45;&gt;p -->
<g id="edge3" class="edge">
<title>SYNTHESIZER&#45;&gt;p</title>
<path fill="none" stroke="#000000" stroke-dasharray="5,2" d="M116.1541,-36.2377C116.1541,-36.2377 116.1541,-133.9104 116.1541,-133.9104"/>
<polygon fill="#000000" stroke="#000000" points="112.6542,-133.9103 116.1541,-143.9104 119.6542,-133.9104 112.6542,-133.9103"/>
</g>
</g>
</svg>
